<svg width="455" height="153" viewBox="0 0 455 153" fill="none" xmlns="http://www.w3.org/2000/svg">
<mask id="path-1-outside-1_567_2048" maskUnits="userSpaceOnUse" x="192.432" y="117.307" width="263" height="20" fill="black">
<rect fill="white" x="192.432" y="117.307" width="263" height="20"/>
<path d="M208.159 124H206.045C205.92 123.392 205.702 122.858 205.389 122.398C205.082 121.937 204.707 121.551 204.264 121.238C203.827 120.92 203.341 120.682 202.807 120.523C202.273 120.363 201.716 120.284 201.136 120.284C200.079 120.284 199.122 120.551 198.264 121.085C197.412 121.619 196.733 122.406 196.227 123.446C195.727 124.486 195.477 125.761 195.477 127.273C195.477 128.784 195.727 130.059 196.227 131.099C196.733 132.139 197.412 132.926 198.264 133.46C199.122 133.994 200.079 134.261 201.136 134.261C201.716 134.261 202.273 134.182 202.807 134.023C203.341 133.863 203.827 133.628 204.264 133.315C204.707 132.997 205.082 132.608 205.389 132.148C205.702 131.682 205.92 131.148 206.045 130.545H208.159C208 131.437 207.71 132.236 207.29 132.94C206.869 133.645 206.346 134.244 205.721 134.738C205.096 135.227 204.395 135.599 203.616 135.855C202.844 136.111 202.017 136.238 201.136 136.238C199.648 136.238 198.324 135.875 197.165 135.148C196.006 134.42 195.094 133.386 194.429 132.045C193.764 130.704 193.432 129.113 193.432 127.273C193.432 125.432 193.764 123.841 194.429 122.5C195.094 121.159 196.006 120.125 197.165 119.398C198.324 118.67 199.648 118.307 201.136 118.307C202.017 118.307 202.844 118.434 203.616 118.69C204.395 118.946 205.096 119.321 205.721 119.815C206.346 120.304 206.869 120.9 207.29 121.605C207.71 122.304 208 123.102 208.159 124Z"/>
<path d="M217.334 136V118.545H223.232C224.596 118.545 225.715 118.778 226.59 119.244C227.465 119.704 228.113 120.338 228.533 121.145C228.954 121.952 229.164 122.869 229.164 123.898C229.164 124.926 228.954 125.838 228.533 126.633C228.113 127.429 227.468 128.054 226.599 128.508C225.729 128.957 224.618 129.182 223.266 129.182H218.493V127.273H223.198C224.13 127.273 224.88 127.136 225.448 126.863C226.022 126.591 226.437 126.204 226.692 125.704C226.954 125.199 227.084 124.596 227.084 123.898C227.084 123.199 226.954 122.588 226.692 122.065C226.431 121.542 226.013 121.139 225.44 120.855C224.866 120.565 224.107 120.42 223.164 120.42H219.448V136H217.334ZM225.55 128.159L229.846 136H227.391L223.164 128.159H225.55Z"/>
<path d="M253.173 127.273C253.173 129.113 252.841 130.704 252.176 132.045C251.511 133.386 250.599 134.42 249.44 135.148C248.281 135.875 246.957 136.238 245.469 136.238C243.98 136.238 242.656 135.875 241.497 135.148C240.338 134.42 239.426 133.386 238.761 132.045C238.097 130.704 237.764 129.113 237.764 127.273C237.764 125.432 238.097 123.841 238.761 122.5C239.426 121.159 240.338 120.125 241.497 119.398C242.656 118.67 243.98 118.307 245.469 118.307C246.957 118.307 248.281 118.67 249.44 119.398C250.599 120.125 251.511 121.159 252.176 122.5C252.841 123.841 253.173 125.432 253.173 127.273ZM251.128 127.273C251.128 125.761 250.875 124.486 250.369 123.446C249.869 122.406 249.19 121.619 248.332 121.085C247.48 120.551 246.526 120.284 245.469 120.284C244.412 120.284 243.454 120.551 242.597 121.085C241.744 121.619 241.065 122.406 240.56 123.446C240.06 124.486 239.81 125.761 239.81 127.273C239.81 128.784 240.06 130.059 240.56 131.099C241.065 132.139 241.744 132.926 242.597 133.46C243.454 133.994 244.412 134.261 245.469 134.261C246.526 134.261 247.48 133.994 248.332 133.46C249.19 132.926 249.869 132.139 250.369 131.099C250.875 130.059 251.128 128.784 251.128 127.273Z"/>
<path d="M265.658 136L260.885 118.545H263.033L266.68 132.761H266.851L270.567 118.545H272.953L276.669 132.761H276.839L280.487 118.545H282.635L277.862 136H275.68L271.828 122.091H271.692L267.839 136H265.658Z"/>
<path d="M296.415 136H291.028V118.545H296.653C298.347 118.545 299.796 118.895 301 119.594C302.205 120.287 303.128 121.284 303.77 122.585C304.412 123.881 304.733 125.432 304.733 127.238C304.733 129.057 304.409 130.622 303.761 131.934C303.114 133.241 302.171 134.247 300.932 134.952C299.693 135.65 298.188 136 296.415 136ZM293.142 134.125H296.278C297.722 134.125 298.918 133.846 299.867 133.29C300.815 132.733 301.523 131.94 301.989 130.912C302.455 129.883 302.688 128.659 302.688 127.238C302.688 125.829 302.457 124.616 301.997 123.599C301.537 122.577 300.849 121.792 299.935 121.247C299.02 120.696 297.881 120.42 296.517 120.42H293.142V134.125Z"/>
<path d="M314.038 136V118.545H324.504V120.42H316.152V126.318H323.72V128.193H316.152V136H314.038Z"/>
<path d="M345.339 118.545H347.453V130.102C347.453 131.295 347.171 132.361 346.609 133.298C346.052 134.23 345.265 134.966 344.248 135.506C343.231 136.04 342.038 136.307 340.668 136.307C339.299 136.307 338.106 136.04 337.089 135.506C336.072 134.966 335.282 134.23 334.72 133.298C334.163 132.361 333.884 131.295 333.884 130.102V118.545H335.998V129.932C335.998 130.784 336.186 131.542 336.561 132.207C336.936 132.866 337.47 133.386 338.163 133.767C338.862 134.142 339.697 134.329 340.668 134.329C341.64 134.329 342.475 134.142 343.174 133.767C343.873 133.386 344.407 132.866 344.776 132.207C345.151 131.542 345.339 130.784 345.339 129.932V118.545Z"/>
<path d="M371.274 118.545V136H369.229L359.718 122.295H359.547V136H357.433V118.545H359.479L369.024 132.284H369.195V118.545H371.274Z"/>
<path d="M386.65 136H381.264V118.545H386.889C388.582 118.545 390.031 118.895 391.235 119.594C392.44 120.287 393.363 121.284 394.005 122.585C394.647 123.881 394.968 125.432 394.968 127.238C394.968 129.057 394.644 130.622 393.997 131.934C393.349 133.241 392.406 134.247 391.167 134.952C389.929 135.65 388.423 136 386.65 136ZM383.377 134.125H386.514C387.957 134.125 389.153 133.846 390.102 133.29C391.051 132.733 391.758 131.94 392.224 130.912C392.69 129.883 392.923 128.659 392.923 127.238C392.923 125.829 392.693 124.616 392.233 123.599C391.772 122.577 391.085 121.792 390.17 121.247C389.255 120.696 388.116 120.42 386.752 120.42H383.377V134.125Z"/>
<path d="M406.387 118.545V136H404.274V118.545H406.387Z"/>
<path d="M430.226 118.545V136H428.181L418.669 122.295H418.499V136H416.385V118.545H418.431L427.976 132.284H428.147V118.545H430.226Z"/>
<path d="M452.147 124C451.96 123.426 451.713 122.912 451.406 122.457C451.105 121.997 450.744 121.605 450.324 121.281C449.909 120.957 449.437 120.71 448.909 120.54C448.38 120.369 447.801 120.284 447.17 120.284C446.136 120.284 445.196 120.551 444.349 121.085C443.503 121.619 442.829 122.406 442.329 123.446C441.829 124.486 441.579 125.761 441.579 127.273C441.579 128.784 441.832 130.059 442.338 131.099C442.843 132.139 443.528 132.926 444.392 133.46C445.255 133.994 446.227 134.261 447.307 134.261C448.307 134.261 449.187 134.048 449.949 133.622C450.716 133.19 451.312 132.582 451.738 131.798C452.17 131.008 452.386 130.079 452.386 129.011L453.034 129.148H447.784V127.273H454.432V129.148C454.432 130.585 454.125 131.835 453.511 132.898C452.903 133.96 452.062 134.784 450.988 135.369C449.92 135.949 448.693 136.238 447.307 136.238C445.761 136.238 444.403 135.875 443.233 135.148C442.068 134.42 441.159 133.386 440.505 132.045C439.858 130.704 439.534 129.113 439.534 127.273C439.534 125.892 439.718 124.65 440.088 123.548C440.463 122.44 440.991 121.497 441.673 120.719C442.355 119.94 443.162 119.344 444.093 118.929C445.025 118.514 446.051 118.307 447.17 118.307C448.091 118.307 448.949 118.446 449.744 118.724C450.545 118.997 451.258 119.386 451.883 119.892C452.514 120.392 453.04 120.991 453.46 121.69C453.88 122.383 454.17 123.153 454.329 124H452.147Z"/>
</mask>
<path d="M208.159 124H206.045C205.92 123.392 205.702 122.858 205.389 122.398C205.082 121.937 204.707 121.551 204.264 121.238C203.827 120.92 203.341 120.682 202.807 120.523C202.273 120.363 201.716 120.284 201.136 120.284C200.079 120.284 199.122 120.551 198.264 121.085C197.412 121.619 196.733 122.406 196.227 123.446C195.727 124.486 195.477 125.761 195.477 127.273C195.477 128.784 195.727 130.059 196.227 131.099C196.733 132.139 197.412 132.926 198.264 133.46C199.122 133.994 200.079 134.261 201.136 134.261C201.716 134.261 202.273 134.182 202.807 134.023C203.341 133.863 203.827 133.628 204.264 133.315C204.707 132.997 205.082 132.608 205.389 132.148C205.702 131.682 205.92 131.148 206.045 130.545H208.159C208 131.437 207.71 132.236 207.29 132.94C206.869 133.645 206.346 134.244 205.721 134.738C205.096 135.227 204.395 135.599 203.616 135.855C202.844 136.111 202.017 136.238 201.136 136.238C199.648 136.238 198.324 135.875 197.165 135.148C196.006 134.42 195.094 133.386 194.429 132.045C193.764 130.704 193.432 129.113 193.432 127.273C193.432 125.432 193.764 123.841 194.429 122.5C195.094 121.159 196.006 120.125 197.165 119.398C198.324 118.67 199.648 118.307 201.136 118.307C202.017 118.307 202.844 118.434 203.616 118.69C204.395 118.946 205.096 119.321 205.721 119.815C206.346 120.304 206.869 120.9 207.29 121.605C207.71 122.304 208 123.102 208.159 124Z" fill="#BBA597"/>
<path d="M217.334 136V118.545H223.232C224.596 118.545 225.715 118.778 226.59 119.244C227.465 119.704 228.113 120.338 228.533 121.145C228.954 121.952 229.164 122.869 229.164 123.898C229.164 124.926 228.954 125.838 228.533 126.633C228.113 127.429 227.468 128.054 226.599 128.508C225.729 128.957 224.618 129.182 223.266 129.182H218.493V127.273H223.198C224.13 127.273 224.88 127.136 225.448 126.863C226.022 126.591 226.437 126.204 226.692 125.704C226.954 125.199 227.084 124.596 227.084 123.898C227.084 123.199 226.954 122.588 226.692 122.065C226.431 121.542 226.013 121.139 225.44 120.855C224.866 120.565 224.107 120.42 223.164 120.42H219.448V136H217.334ZM225.55 128.159L229.846 136H227.391L223.164 128.159H225.55Z" fill="#BBA597"/>
<path d="M253.173 127.273C253.173 129.113 252.841 130.704 252.176 132.045C251.511 133.386 250.599 134.42 249.44 135.148C248.281 135.875 246.957 136.238 245.469 136.238C243.98 136.238 242.656 135.875 241.497 135.148C240.338 134.42 239.426 133.386 238.761 132.045C238.097 130.704 237.764 129.113 237.764 127.273C237.764 125.432 238.097 123.841 238.761 122.5C239.426 121.159 240.338 120.125 241.497 119.398C242.656 118.67 243.98 118.307 245.469 118.307C246.957 118.307 248.281 118.67 249.44 119.398C250.599 120.125 251.511 121.159 252.176 122.5C252.841 123.841 253.173 125.432 253.173 127.273ZM251.128 127.273C251.128 125.761 250.875 124.486 250.369 123.446C249.869 122.406 249.19 121.619 248.332 121.085C247.48 120.551 246.526 120.284 245.469 120.284C244.412 120.284 243.454 120.551 242.597 121.085C241.744 121.619 241.065 122.406 240.56 123.446C240.06 124.486 239.81 125.761 239.81 127.273C239.81 128.784 240.06 130.059 240.56 131.099C241.065 132.139 241.744 132.926 242.597 133.46C243.454 133.994 244.412 134.261 245.469 134.261C246.526 134.261 247.48 133.994 248.332 133.46C249.19 132.926 249.869 132.139 250.369 131.099C250.875 130.059 251.128 128.784 251.128 127.273Z" fill="#BBA597"/>
<path d="M265.658 136L260.885 118.545H263.033L266.68 132.761H266.851L270.567 118.545H272.953L276.669 132.761H276.839L280.487 118.545H282.635L277.862 136H275.68L271.828 122.091H271.692L267.839 136H265.658Z" fill="#BBA597"/>
<path d="M296.415 136H291.028V118.545H296.653C298.347 118.545 299.796 118.895 301 119.594C302.205 120.287 303.128 121.284 303.77 122.585C304.412 123.881 304.733 125.432 304.733 127.238C304.733 129.057 304.409 130.622 303.761 131.934C303.114 133.241 302.171 134.247 300.932 134.952C299.693 135.65 298.188 136 296.415 136ZM293.142 134.125H296.278C297.722 134.125 298.918 133.846 299.867 133.29C300.815 132.733 301.523 131.94 301.989 130.912C302.455 129.883 302.688 128.659 302.688 127.238C302.688 125.829 302.457 124.616 301.997 123.599C301.537 122.577 300.849 121.792 299.935 121.247C299.02 120.696 297.881 120.42 296.517 120.42H293.142V134.125Z" fill="#BBA597"/>
<path d="M314.038 136V118.545H324.504V120.42H316.152V126.318H323.72V128.193H316.152V136H314.038Z" fill="#BBA597"/>
<path d="M345.339 118.545H347.453V130.102C347.453 131.295 347.171 132.361 346.609 133.298C346.052 134.23 345.265 134.966 344.248 135.506C343.231 136.04 342.038 136.307 340.668 136.307C339.299 136.307 338.106 136.04 337.089 135.506C336.072 134.966 335.282 134.23 334.72 133.298C334.163 132.361 333.884 131.295 333.884 130.102V118.545H335.998V129.932C335.998 130.784 336.186 131.542 336.561 132.207C336.936 132.866 337.47 133.386 338.163 133.767C338.862 134.142 339.697 134.329 340.668 134.329C341.64 134.329 342.475 134.142 343.174 133.767C343.873 133.386 344.407 132.866 344.776 132.207C345.151 131.542 345.339 130.784 345.339 129.932V118.545Z" fill="#BBA597"/>
<path d="M371.274 118.545V136H369.229L359.718 122.295H359.547V136H357.433V118.545H359.479L369.024 132.284H369.195V118.545H371.274Z" fill="#BBA597"/>
<path d="M386.65 136H381.264V118.545H386.889C388.582 118.545 390.031 118.895 391.235 119.594C392.44 120.287 393.363 121.284 394.005 122.585C394.647 123.881 394.968 125.432 394.968 127.238C394.968 129.057 394.644 130.622 393.997 131.934C393.349 133.241 392.406 134.247 391.167 134.952C389.929 135.65 388.423 136 386.65 136ZM383.377 134.125H386.514C387.957 134.125 389.153 133.846 390.102 133.29C391.051 132.733 391.758 131.94 392.224 130.912C392.69 129.883 392.923 128.659 392.923 127.238C392.923 125.829 392.693 124.616 392.233 123.599C391.772 122.577 391.085 121.792 390.17 121.247C389.255 120.696 388.116 120.42 386.752 120.42H383.377V134.125Z" fill="#BBA597"/>
<path d="M406.387 118.545V136H404.274V118.545H406.387Z" fill="#BBA597"/>
<path d="M430.226 118.545V136H428.181L418.669 122.295H418.499V136H416.385V118.545H418.431L427.976 132.284H428.147V118.545H430.226Z" fill="#BBA597"/>
<path d="M452.147 124C451.96 123.426 451.713 122.912 451.406 122.457C451.105 121.997 450.744 121.605 450.324 121.281C449.909 120.957 449.437 120.71 448.909 120.54C448.38 120.369 447.801 120.284 447.17 120.284C446.136 120.284 445.196 120.551 444.349 121.085C443.503 121.619 442.829 122.406 442.329 123.446C441.829 124.486 441.579 125.761 441.579 127.273C441.579 128.784 441.832 130.059 442.338 131.099C442.843 132.139 443.528 132.926 444.392 133.46C445.255 133.994 446.227 134.261 447.307 134.261C448.307 134.261 449.187 134.048 449.949 133.622C450.716 133.19 451.312 132.582 451.738 131.798C452.17 131.008 452.386 130.079 452.386 129.011L453.034 129.148H447.784V127.273H454.432V129.148C454.432 130.585 454.125 131.835 453.511 132.898C452.903 133.96 452.062 134.784 450.988 135.369C449.92 135.949 448.693 136.238 447.307 136.238C445.761 136.238 444.403 135.875 443.233 135.148C442.068 134.42 441.159 133.386 440.505 132.045C439.858 130.704 439.534 129.113 439.534 127.273C439.534 125.892 439.718 124.65 440.088 123.548C440.463 122.44 440.991 121.497 441.673 120.719C442.355 119.94 443.162 119.344 444.093 118.929C445.025 118.514 446.051 118.307 447.17 118.307C448.091 118.307 448.949 118.446 449.744 118.724C450.545 118.997 451.258 119.386 451.883 119.892C452.514 120.392 453.04 120.991 453.46 121.69C453.88 122.383 454.17 123.153 454.329 124H452.147Z" fill="#BBA597"/>
<path d="M208.159 124H206.045C205.92 123.392 205.702 122.858 205.389 122.398C205.082 121.937 204.707 121.551 204.264 121.238C203.827 120.92 203.341 120.682 202.807 120.523C202.273 120.363 201.716 120.284 201.136 120.284C200.079 120.284 199.122 120.551 198.264 121.085C197.412 121.619 196.733 122.406 196.227 123.446C195.727 124.486 195.477 125.761 195.477 127.273C195.477 128.784 195.727 130.059 196.227 131.099C196.733 132.139 197.412 132.926 198.264 133.46C199.122 133.994 200.079 134.261 201.136 134.261C201.716 134.261 202.273 134.182 202.807 134.023C203.341 133.863 203.827 133.628 204.264 133.315C204.707 132.997 205.082 132.608 205.389 132.148C205.702 131.682 205.92 131.148 206.045 130.545H208.159C208 131.437 207.71 132.236 207.29 132.94C206.869 133.645 206.346 134.244 205.721 134.738C205.096 135.227 204.395 135.599 203.616 135.855C202.844 136.111 202.017 136.238 201.136 136.238C199.648 136.238 198.324 135.875 197.165 135.148C196.006 134.42 195.094 133.386 194.429 132.045C193.764 130.704 193.432 129.113 193.432 127.273C193.432 125.432 193.764 123.841 194.429 122.5C195.094 121.159 196.006 120.125 197.165 119.398C198.324 118.67 199.648 118.307 201.136 118.307C202.017 118.307 202.844 118.434 203.616 118.69C204.395 118.946 205.096 119.321 205.721 119.815C206.346 120.304 206.869 120.9 207.29 121.605C207.71 122.304 208 123.102 208.159 124Z" stroke="#D6D6D6" stroke-width="0.4" mask="url(#path-1-outside-1_567_2048)"/>
<path d="M217.334 136V118.545H223.232C224.596 118.545 225.715 118.778 226.59 119.244C227.465 119.704 228.113 120.338 228.533 121.145C228.954 121.952 229.164 122.869 229.164 123.898C229.164 124.926 228.954 125.838 228.533 126.633C228.113 127.429 227.468 128.054 226.599 128.508C225.729 128.957 224.618 129.182 223.266 129.182H218.493V127.273H223.198C224.13 127.273 224.88 127.136 225.448 126.863C226.022 126.591 226.437 126.204 226.692 125.704C226.954 125.199 227.084 124.596 227.084 123.898C227.084 123.199 226.954 122.588 226.692 122.065C226.431 121.542 226.013 121.139 225.44 120.855C224.866 120.565 224.107 120.42 223.164 120.42H219.448V136H217.334ZM225.55 128.159L229.846 136H227.391L223.164 128.159H225.55Z" stroke="#D6D6D6" stroke-width="0.4" mask="url(#path-1-outside-1_567_2048)"/>
<path d="M253.173 127.273C253.173 129.113 252.841 130.704 252.176 132.045C251.511 133.386 250.599 134.42 249.44 135.148C248.281 135.875 246.957 136.238 245.469 136.238C243.98 136.238 242.656 135.875 241.497 135.148C240.338 134.42 239.426 133.386 238.761 132.045C238.097 130.704 237.764 129.113 237.764 127.273C237.764 125.432 238.097 123.841 238.761 122.5C239.426 121.159 240.338 120.125 241.497 119.398C242.656 118.67 243.98 118.307 245.469 118.307C246.957 118.307 248.281 118.67 249.44 119.398C250.599 120.125 251.511 121.159 252.176 122.5C252.841 123.841 253.173 125.432 253.173 127.273ZM251.128 127.273C251.128 125.761 250.875 124.486 250.369 123.446C249.869 122.406 249.19 121.619 248.332 121.085C247.48 120.551 246.526 120.284 245.469 120.284C244.412 120.284 243.454 120.551 242.597 121.085C241.744 121.619 241.065 122.406 240.56 123.446C240.06 124.486 239.81 125.761 239.81 127.273C239.81 128.784 240.06 130.059 240.56 131.099C241.065 132.139 241.744 132.926 242.597 133.46C243.454 133.994 244.412 134.261 245.469 134.261C246.526 134.261 247.48 133.994 248.332 133.46C249.19 132.926 249.869 132.139 250.369 131.099C250.875 130.059 251.128 128.784 251.128 127.273Z" stroke="#D6D6D6" stroke-width="0.4" mask="url(#path-1-outside-1_567_2048)"/>
<path d="M265.658 136L260.885 118.545H263.033L266.68 132.761H266.851L270.567 118.545H272.953L276.669 132.761H276.839L280.487 118.545H282.635L277.862 136H275.68L271.828 122.091H271.692L267.839 136H265.658Z" stroke="#D6D6D6" stroke-width="0.4" mask="url(#path-1-outside-1_567_2048)"/>
<path d="M296.415 136H291.028V118.545H296.653C298.347 118.545 299.796 118.895 301 119.594C302.205 120.287 303.128 121.284 303.77 122.585C304.412 123.881 304.733 125.432 304.733 127.238C304.733 129.057 304.409 130.622 303.761 131.934C303.114 133.241 302.171 134.247 300.932 134.952C299.693 135.65 298.188 136 296.415 136ZM293.142 134.125H296.278C297.722 134.125 298.918 133.846 299.867 133.29C300.815 132.733 301.523 131.94 301.989 130.912C302.455 129.883 302.688 128.659 302.688 127.238C302.688 125.829 302.457 124.616 301.997 123.599C301.537 122.577 300.849 121.792 299.935 121.247C299.02 120.696 297.881 120.42 296.517 120.42H293.142V134.125Z" stroke="#D6D6D6" stroke-width="0.4" mask="url(#path-1-outside-1_567_2048)"/>
<path d="M314.038 136V118.545H324.504V120.42H316.152V126.318H323.72V128.193H316.152V136H314.038Z" stroke="#D6D6D6" stroke-width="0.4" mask="url(#path-1-outside-1_567_2048)"/>
<path d="M345.339 118.545H347.453V130.102C347.453 131.295 347.171 132.361 346.609 133.298C346.052 134.23 345.265 134.966 344.248 135.506C343.231 136.04 342.038 136.307 340.668 136.307C339.299 136.307 338.106 136.04 337.089 135.506C336.072 134.966 335.282 134.23 334.72 133.298C334.163 132.361 333.884 131.295 333.884 130.102V118.545H335.998V129.932C335.998 130.784 336.186 131.542 336.561 132.207C336.936 132.866 337.47 133.386 338.163 133.767C338.862 134.142 339.697 134.329 340.668 134.329C341.64 134.329 342.475 134.142 343.174 133.767C343.873 133.386 344.407 132.866 344.776 132.207C345.151 131.542 345.339 130.784 345.339 129.932V118.545Z" stroke="#D6D6D6" stroke-width="0.4" mask="url(#path-1-outside-1_567_2048)"/>
<path d="M371.274 118.545V136H369.229L359.718 122.295H359.547V136H357.433V118.545H359.479L369.024 132.284H369.195V118.545H371.274Z" stroke="#D6D6D6" stroke-width="0.4" mask="url(#path-1-outside-1_567_2048)"/>
<path d="M386.65 136H381.264V118.545H386.889C388.582 118.545 390.031 118.895 391.235 119.594C392.44 120.287 393.363 121.284 394.005 122.585C394.647 123.881 394.968 125.432 394.968 127.238C394.968 129.057 394.644 130.622 393.997 131.934C393.349 133.241 392.406 134.247 391.167 134.952C389.929 135.65 388.423 136 386.65 136ZM383.377 134.125H386.514C387.957 134.125 389.153 133.846 390.102 133.29C391.051 132.733 391.758 131.94 392.224 130.912C392.69 129.883 392.923 128.659 392.923 127.238C392.923 125.829 392.693 124.616 392.233 123.599C391.772 122.577 391.085 121.792 390.17 121.247C389.255 120.696 388.116 120.42 386.752 120.42H383.377V134.125Z" stroke="#D6D6D6" stroke-width="0.4" mask="url(#path-1-outside-1_567_2048)"/>
<path d="M406.387 118.545V136H404.274V118.545H406.387Z" stroke="#D6D6D6" stroke-width="0.4" mask="url(#path-1-outside-1_567_2048)"/>
<path d="M430.226 118.545V136H428.181L418.669 122.295H418.499V136H416.385V118.545H418.431L427.976 132.284H428.147V118.545H430.226Z" stroke="#D6D6D6" stroke-width="0.4" mask="url(#path-1-outside-1_567_2048)"/>
<path d="M452.147 124C451.96 123.426 451.713 122.912 451.406 122.457C451.105 121.997 450.744 121.605 450.324 121.281C449.909 120.957 449.437 120.71 448.909 120.54C448.38 120.369 447.801 120.284 447.17 120.284C446.136 120.284 445.196 120.551 444.349 121.085C443.503 121.619 442.829 122.406 442.329 123.446C441.829 124.486 441.579 125.761 441.579 127.273C441.579 128.784 441.832 130.059 442.338 131.099C442.843 132.139 443.528 132.926 444.392 133.46C445.255 133.994 446.227 134.261 447.307 134.261C448.307 134.261 449.187 134.048 449.949 133.622C450.716 133.19 451.312 132.582 451.738 131.798C452.17 131.008 452.386 130.079 452.386 129.011L453.034 129.148H447.784V127.273H454.432V129.148C454.432 130.585 454.125 131.835 453.511 132.898C452.903 133.96 452.062 134.784 450.988 135.369C449.92 135.949 448.693 136.238 447.307 136.238C445.761 136.238 444.403 135.875 443.233 135.148C442.068 134.42 441.159 133.386 440.505 132.045C439.858 130.704 439.534 129.113 439.534 127.273C439.534 125.892 439.718 124.65 440.088 123.548C440.463 122.44 440.991 121.497 441.673 120.719C442.355 119.94 443.162 119.344 444.093 118.929C445.025 118.514 446.051 118.307 447.17 118.307C448.091 118.307 448.949 118.446 449.744 118.724C450.545 118.997 451.258 119.386 451.883 119.892C452.514 120.392 453.04 120.991 453.46 121.69C453.88 122.383 454.17 123.153 454.329 124H452.147Z" stroke="#D6D6D6" stroke-width="0.4" mask="url(#path-1-outside-1_567_2048)"/>
<path d="M192.321 95.0002V22.2729H221.441C226.791 22.2729 231.254 23.066 234.828 24.6522C238.403 26.2384 241.09 28.4401 242.889 31.2573C244.689 34.0509 245.588 37.2706 245.588 40.9164C245.588 43.7573 245.02 46.255 243.884 48.4093C242.747 50.54 241.185 52.2919 239.196 53.665C237.231 55.0144 234.982 55.9732 232.449 56.5414V57.2516C235.219 57.37 237.811 58.1513 240.226 59.5954C242.665 61.0395 244.641 63.0637 246.157 65.6678C247.672 68.2483 248.429 71.326 248.429 74.9008C248.429 78.7597 247.47 82.2043 245.553 85.2346C243.659 88.2412 240.853 90.6205 237.137 92.3724C233.42 94.1243 228.839 95.0002 223.394 95.0002H192.321ZM207.698 82.4292H220.233C224.518 82.4292 227.643 81.6124 229.608 79.9789C231.573 78.3217 232.556 76.12 232.556 73.3738C232.556 71.3615 232.07 69.5859 231.1 68.0471C230.129 66.5083 228.744 65.3009 226.945 64.4249C225.169 63.549 223.05 63.111 220.588 63.111H207.698V82.4292ZM207.698 52.7062H219.097C221.204 52.7062 223.074 52.3392 224.708 51.6053C226.365 50.8478 227.667 49.7824 228.614 48.4093C229.585 47.0362 230.07 45.3908 230.07 43.4732C230.07 40.8454 229.135 38.7265 227.264 37.1167C225.418 35.5068 222.79 34.7019 219.381 34.7019H207.698V52.7062Z" fill="#100C08"/>
<path d="M268.97 95.0002H252.493L277.599 22.2729H297.415L322.486 95.0002H306.008L287.791 38.8923H287.223L268.97 95.0002ZM267.94 66.4136H306.861V78.4164H267.94V66.4136Z" fill="#100C08"/>
<path d="M329.239 95.0002V22.2729H357.932C363.425 22.2729 368.112 23.2554 371.995 25.2204C375.901 27.1617 378.872 29.9197 380.908 33.4945C382.968 37.0457 383.998 41.2242 383.998 46.0301C383.998 50.8596 382.956 55.0144 380.873 58.4945C378.789 61.951 375.771 64.6025 371.817 66.4491C367.887 68.2957 363.129 69.219 357.542 69.219H338.33V56.861H355.056C357.992 56.861 360.43 56.4586 362.371 55.6536C364.313 54.8487 365.757 53.6413 366.704 52.0315C367.674 50.4216 368.16 48.4212 368.16 46.0301C368.16 43.6153 367.674 41.5793 366.704 39.9221C365.757 38.2649 364.301 37.0102 362.336 36.1579C360.395 35.2819 357.944 34.844 354.985 34.844H344.616V95.0002H329.239ZM368.515 61.9036L386.59 95.0002H369.616L351.931 61.9036H368.515Z" fill="#100C08"/>
<path d="M392.864 95.0002V22.2729H408.241V54.3397H409.199L435.371 22.2729H453.802L426.813 54.8369L454.121 95.0002H435.726L415.805 65.0997L408.241 74.3326V95.0002H392.864Z" fill="#100C08"/>
<g clip-path="url(#clip0_567_2048)">
<path d="M65.5237 42.3464C64.4791 43.9882 62.0547 44.4925 60.1086 43.4728C58.1625 42.4531 57.4317 40.2955 58.4763 38.6536C59.5209 37.0118 61.9453 36.5075 63.8914 37.5272C65.8375 38.5469 66.5683 40.7045 65.5237 42.3464Z" fill="#100C08"/>
<path d="M112.398 38.4581C113.563 40.0279 112.986 42.2147 111.11 43.3424C109.233 44.47 106.767 44.1116 105.602 42.5419C104.437 40.9721 105.014 38.7853 106.89 37.6576C108.767 36.53 111.233 36.8884 112.398 38.4581Z" fill="#100C08"/>
<path fill-rule="evenodd" clip-rule="evenodd" d="M102.942 69.2242L103.26 74.9646L97.3308 72.4597L102.944 69.2242H102.942ZM117.434 38.8483C117.434 38.8483 125.978 50.8386 103.853 43.6563C103.853 43.6563 108.683 38.3373 117.434 38.8483ZM105.847 58.3636C112.911 66.8043 111.761 80.8697 111.761 80.8697C109.9 77.8874 104.914 75.6374 104.914 75.6374C107.105 65.6224 105.847 58.3636 105.847 58.3636ZM122.164 69.3059L114.116 80.447L113.65 68.939L122.164 69.3043V69.3059ZM121.487 73.9L123.444 89.55L114.733 82.4459L121.485 73.9H121.487ZM133.28 73.0764C132.404 85.9037 123.751 94.6821 123.751 94.6821C127.148 82.3573 124.627 69.7 124.627 69.7L133.28 73.0764ZM68.0575 69.2226L67.7418 74.963L73.6708 72.458L68.0575 69.2226ZM53.5662 38.8467C53.5662 38.8467 45.0224 50.837 67.1468 43.6547C67.1468 43.6547 62.3169 38.3357 53.5662 38.8467ZM65.1549 58.362C58.0904 66.8027 59.2408 80.868 59.2408 80.868C61.1019 77.8858 66.0856 75.6354 66.0856 75.6354C63.8955 65.6208 65.1549 58.362 65.1549 58.362ZM48.8356 69.3043L56.8854 80.4453L57.3515 68.9373L48.8356 69.3027V69.3043ZM49.5134 73.8983L47.5547 89.5481L56.2654 82.4441L49.5134 73.8983ZM37.7197 73.0744C38.5957 85.902 47.2488 94.6805 47.2488 94.6805C43.8537 82.3557 46.3728 69.6981 46.3728 69.6981L37.7197 73.0744ZM85.5009 29.8371C85.5009 29.8371 110.524 1.02874 128.485 21.5104C140.411 -2.85188 151.15 44.7789 154.991 47.0548C137.545 42.7273 133.641 7.34647 101.215 30.5132C133.244 14.5253 133.945 43.9943 141.3 51.3311C141.3 51.3311 132.401 46.8018 122.764 48.7717C122.764 48.7717 125.12 42.1329 120.903 37.0126C120.903 37.0126 126.763 36.9565 129.5 40.9509C123.992 9.32669 97.0087 55.4749 91.3853 35.8305C91.3853 35.8305 89.6877 40.669 91.0564 44.0454C91.0564 44.0454 86.79 40.331 85.5009 31.1602C84.2116 40.331 79.9436 44.0454 79.9436 44.0454C81.3139 40.669 79.6147 35.8305 79.6147 35.8305C73.9913 55.4749 47.0092 9.32669 41.5016 40.9509C44.2405 36.9565 50.1 37.0126 50.1 37.0126C45.8836 42.1329 48.2389 48.7717 48.2389 48.7717C38.6007 46.8034 29.703 51.3311 29.703 51.3311C37.0604 43.9943 37.7579 14.5253 69.7881 30.5132C37.361 7.34647 33.4568 42.7273 16.0118 47.0548C19.8532 44.7772 30.5891 -2.85188 42.5182 21.5104C60.4805 1.02874 85.5025 29.8371 85.5025 29.8371H85.5009ZM103.076 13.294C103.076 13.294 92.896 11.9438 85.5009 19.7084C78.1056 11.9438 67.9252 13.294 67.9252 13.294C74.1948 6.73678 96.8068 6.73678 103.076 13.294ZM162.281 78.7773C170.528 67.1625 163.393 60.7498 159.3 58.2669C165.015 58.1549 169.457 55.0487 171 49.4152C152.38 47.7833 158.611 -9.4736 127.077 10.6378C124.888 1.72675 110.881 6.32238 108.723 7.08833C96.4399 -2.36278 74.5535 -2.36278 62.2721 7.08833C60.1152 6.32238 46.1083 1.72675 43.9182 10.6378C12.3871 -9.47022 18.6185 47.7866 0 49.4188C1.54218 55.0521 5.98518 58.1584 11.6977 58.2702C7.60843 60.7532 0.472728 67.1661 8.71759 78.7809C-39.4338 177.74 210.434 177.74 162.281 78.7809V78.7773ZM155.839 84.7251C155.839 84.7251 161.646 110.157 138.865 126.361C138.865 126.361 143.575 111.845 136.345 100.816C136.345 100.816 140.616 121.071 114.987 140.427C114.987 140.427 123.531 132.099 122.654 118.596C116.217 152.218 54.7797 152.218 48.3432 118.596C47.4671 132.099 56.0094 140.427 56.0094 140.427C30.379 121.071 34.652 100.816 34.652 100.816C27.4236 111.845 32.1329 126.361 32.1329 126.361C9.35219 110.156 15.159 84.7251 15.159 84.7251C18.9921 92.0394 25.3443 93.8399 25.3443 93.8399C-2.40667 58.4095 27.6634 56.224 62.8011 53.6083C57.216 50.7384 52.5612 51.4158 52.5612 51.4158C59.7071 47.8818 71.8824 42.853 78.3537 49.5021C78.3537 49.5021 71.2329 49.7262 69.7006 56.7027C69.912 56.9014 89.7967 70.77 81.2017 70.77L77.861 68.9696L75.3964 70.9378C75.3964 70.9378 71.8906 68.1239 67.4012 66.2116C67.4012 66.2116 66.1964 57.9409 67.8394 52.9886C67.8394 52.9886 62.5814 55.1268 59.6241 64.1296C59.6241 64.1296 47.3581 59.1773 30.1628 66.1539C30.1628 66.1539 24.1393 87.4219 50.6441 107.003C51.0689 68.078 119.93 68.078 120.356 107.003C146.861 87.4235 140.836 66.1539 140.836 66.1539C123.64 59.1773 111.374 64.1296 111.374 64.1296C108.417 55.1268 103.159 52.9886 103.159 52.9886C104.802 57.9409 103.597 66.2116 103.597 66.2116C99.1059 68.1239 95.602 70.9378 95.602 70.9378L93.1374 68.9696L89.7967 70.77C81.2017 70.77 101.086 56.9014 101.296 56.7027C99.7623 49.7262 92.6431 49.5021 92.6431 49.5021C99.116 42.853 111.291 47.8818 118.437 51.4158C118.437 51.4158 113.782 50.74 108.197 53.6083C143.335 56.224 173.405 58.4095 145.656 93.8399C145.656 93.8399 152.008 92.0394 155.841 84.7251H155.839Z" fill="#100C08"/>
</g>
<defs>
<clipPath id="clip0_567_2048">
<rect width="171" height="153" fill="white"/>
</clipPath>
</defs>
</svg>
